<svg width="340" height="58" viewBox="0 0 340 58" fill="none" xmlns="http://www.w3.org/2000/svg">
<path d="M179.185 19.3269H195.014V23.4515H198.023V16.6808H194.334L196.047 13.6846H192.515L190.789 16.6808H189.153L187.479 13.6846H183.947L185.66 16.6808H183.397L181.67 13.6846H178.125L179.852 16.6808H176.189V23.4775H179.185V19.3269ZM185.36 31.4155C185.36 32.0381 185.124 32.2586 184.653 32.2586H181.814V35.4623H186.458C188.722 35.4623 189.075 33.7502 189.075 32.2715V29.1197H197.997V26.2791H189.101L193.758 23.4775V20.6109H180.454V23.4515H188.957L185.36 25.462V26.2661H176.202V29.1067H185.36V31.4025V31.4155ZM199.501 35.4623V31.9473C202.484 30.741 207.533 27.5373 208.24 21.9729H199.789V18.7172H208.318V13.6846H212.491V18.7172H220.995V21.9988H212.57C213.276 27.5502 218.326 30.6502 221.309 31.8435V35.592C216.799 34.3245 212.916 31.4579 210.398 27.5373C207.86 31.4058 203.985 34.2235 199.501 35.4623ZM94.1785 35.4623H98.8357C101.452 35.4623 102.512 34.5284 102.512 31.8695V29.1327L99.202 26.9277V30.287C99.202 31.5841 98.6264 31.9732 97.5144 31.9732H95.7615C95.4737 31.9732 95.4082 31.8305 95.4082 31.623V23.4904L101.661 18.6005V14.0867L95.4082 18.9767V13.6717H91.7061V33.7113C91.7061 35.177 92.5826 35.4493 94.1785 35.4493V35.4623ZM85.78 35.4493H89.5083V13.6846H85.78V18.8729H79.6445V22.336H85.78V26.2272L79.6445 30.9874V35.4882L85.78 30.741V35.4493ZM141.077 18.3152H134.994V15.7859H138.16L136.852 13.6587H140.384L141.692 15.7859H143.955L145.263 13.6587H148.809L147.5 15.7859H150.562V18.3152H144.714L143.929 19.6122H149.005V31.2858H136.459V19.6122H140.384L141.169 18.3152H141.077ZM145.931 27.8875H139.52V28.9511H145.931V27.8875ZM145.931 24.8394H139.52V25.89H145.931V24.8394ZM145.931 21.8691H139.52V22.8678H145.931V21.8691ZM132.535 33.2443C132.535 33.2443 133.15 35.4364 136.878 35.4364H151.072V32.2456H136.682C134.955 32.2456 134.288 31.4025 134.288 29.7163V21.2725H128.152V24.4113H131.227V28.523C131.231 29.338 130.929 30.1253 130.38 30.7319C129.831 31.3385 129.075 31.7209 128.257 31.8046V35.4364C129.102 35.4769 129.942 35.2955 130.693 34.9105C131.444 34.5256 132.08 33.9508 132.535 33.2443ZM134.366 17.498L130.363 14.1127L128.231 16.629L132.26 20.0013L134.366 17.498ZM164.769 19.1323L162.623 21.6745L166.639 25.0599L168.746 22.5436L164.769 19.1323ZM152.733 27.4205V31.9862C154.093 30.9011 155.23 29.5668 156.082 28.0561V35.5012H159.47V26.5904C159.998 27.3246 160.644 27.9686 161.38 28.4971V30.5075L169.23 29.1197V35.5012H172.762V28.4971L174.711 28.1599V24.8264L172.762 25.1766V13.6587H169.269V16.9922L165.828 14.0738L163.696 16.5901L167.712 19.9754L169.269 18.1206V25.7603L162.008 27.0573V25.2674C160.983 24.5903 160.114 23.7063 159.457 22.6733V22.4139H162.074V19.5733H159.457V17.0829L162.074 16.616V13.6717L152.838 15.3579V18.3022L156.082 17.6796V19.5603H152.681V22.4009H155.755C155.126 24.2724 154.08 25.9792 152.694 27.3946L152.733 27.4205ZM105.691 27.0444H109.615L107.771 35.4104H103.846L105.691 27.0444ZM109.811 17.4202L105.965 14.1516L103.833 16.6679L107.758 19.9235L109.811 17.4202ZM109.223 23.0883L105.377 19.8197L103.244 22.336L107.169 25.6046L109.223 23.0883ZM119.374 35.4104H111.015C111.015 35.4104 111.434 32.4791 111.891 28.6268H110.439V26.0327H112.205C112.376 24.4373 112.48 23.0883 112.559 22.0507H109.511L111.342 13.6717H115.267L114.887 15.4227H125.994V18.0817H114.364L114.037 19.6122H125.693C125.693 19.6122 125.693 22.0637 125.497 26.0327H126.936V28.6268H125.314C125.065 32.518 124.856 35.4104 124.856 35.4104H119.453H119.374ZM122.148 28.6268H120.015C119.871 30.1962 119.741 31.61 119.636 32.7255H121.873C121.951 31.61 122.043 30.1962 122.148 28.6268ZM122.305 26.0327C122.396 24.554 122.436 23.2959 122.475 22.2842H120.486C120.486 23.2959 120.369 24.554 120.251 26.0327H122.305ZM115.384 26.0327H117.451C117.569 24.554 117.634 23.2959 117.687 22.2842H115.724C115.646 23.2959 115.541 24.554 115.384 26.0327ZM116.81 32.7774C116.928 31.6619 117.072 30.2481 117.216 28.6787H115.136C114.94 30.2481 114.769 31.6619 114.613 32.7774H116.81ZM225.796 19.3269H241.625V23.4515H244.621V16.6808H240.984L242.711 13.6846H239.165L237.439 16.6808H235.803L234.077 13.6846H230.545L232.258 16.6808H230.047L228.321 13.6846H224.775L226.502 16.6808H222.8V23.4775H225.809L225.796 19.3269ZM231.957 31.4155C231.957 32.0381 231.722 32.2586 231.251 32.2586H228.464V35.4623H233.109C235.385 35.4623 235.725 33.7502 235.725 32.2715V29.1197H244.647V26.2791H235.751L240.408 23.4775V20.6109H227.104V23.4515H235.607L231.957 25.462V26.2661H222.8V29.1067H231.957V31.4025V31.4155Z" fill="black"/>
<path d="M315.524 26.2657V29.1062H306.837V31.9468C306.837 34.4501 305.529 35.4619 303.279 35.4619H299.564V32.2451H302.377C302.847 32.2451 303.083 32.0117 303.083 31.415V29.1192H293.756V26.2787H303.083V25.4615L306.68 23.477H298.007V20.6105H311.272V23.477L306.837 26.2657H315.524ZM313.575 13.6971H310.029L308.316 16.7063H306.694L304.98 13.6971H301.422L303.148 16.7063H300.938L299.237 13.6971H295.679L297.405 16.7063H293.756V23.477H296.738V19.3264H312.554V23.477H315.524V16.7063H311.861L313.575 13.6971ZM339.739 35.4489C337.164 35.1378 334.726 34.1329 332.687 32.5435C330.633 34.1303 328.182 35.1344 325.597 35.4489V32.2451C327.318 31.919 328.96 31.272 330.437 30.3384C329.134 28.6319 328.239 26.6537 327.821 24.5536L327.219 25.0335L325.27 22.7896L329.77 18.8984L331.745 21.1812L328.501 23.9958H331C331.213 25.5006 331.777 26.9352 332.648 28.1853C333.529 26.9416 334.09 25.5034 334.283 23.9958H336.795L333.564 21.1812L335.5 18.8984L340 22.7896L338.051 25.0335L337.462 24.5536C337.039 26.652 336.145 28.6291 334.846 30.3384C336.311 31.2767 337.946 31.9242 339.66 32.2451L339.739 35.4489ZM325.675 23.9829C325.034 23.3499 324.448 22.6643 323.922 21.9335V20.6364H326.343V18.626H339.346V15.7984H334.754V13.7101H330.62V15.7984H326.146V17.7959H323.988V13.7361H320.665V17.7959H317.316V20.6364H320.534C319.958 22.5741 318.968 24.3659 317.63 25.8895V30.8184C318.744 29.3932 319.758 27.8937 320.665 26.3305V35.41H324.014V25.7339C324.502 26.3443 325.085 26.874 325.741 27.3033L325.675 23.9829ZM283.159 23.9829H292.133V26.3176H287.803V27.6146H291.074V29.8067H287.803V31.9468C287.803 34.4501 286.495 35.4619 284.258 35.4619H281.197V32.4008H283.604C284.088 32.4008 284.31 32.1803 284.31 31.5577V29.9104H277.9L280.137 31.8041L278.136 34.1907L274.447 31.1167L275.48 29.9104H271.556V27.7184H284.284V26.4213H270.417V24.0866H279.379V22.7896H272.511V20.5586H279.326V19.3653H276.71L275.402 17.2381H274.551L273.858 19.3653H270.483L272.262 13.7879H275.742L275.271 15.2796H280.504V17.2381H278.567L279.444 18.7168H280.661L282.23 13.7879H285.762L285.278 15.2796H291.819V17.2381H288.601L289.831 19.3653H286.757L285.449 17.2381H284.598L283.918 19.3653H283.172V20.5586H289.988V22.7896H283.225L283.159 23.9829ZM265.577 18.5352H250.167V23.5159H265.643L265.577 18.5352ZM253.803 20.377H262.045V21.6741H253.83L253.803 20.377ZM268.769 17.5105H247.027V15.1369H256.014V13.6453H259.559V15.1369H268.795L268.769 17.5105ZM250.023 24.5406H246.975V35.384H250.729V27.018H265.119V31.2205C265.119 32.0376 264.962 32.2451 264.256 32.2451H263.131V28.0556H252.678V33.3087H262.32V35.3711H266.244C267.997 35.3711 268.861 34.7485 268.861 32.8937V24.5276H250.049L250.023 24.5406ZM259.756 31.5447H255.949V29.8585H259.782L259.756 31.5447Z" fill="black"/>
<path d="M35.3343 17.679L27.8776 28.0555C27.2586 28.9728 26.5675 29.8402 25.8106 30.6496C24.5764 31.9307 23.0383 32.8849 21.3366 33.4253L2.42015 39.5215L0 43.0365L9.15734 45.6307L12.4409 40.8575C13.3697 39.5604 13.8799 38.86 15.2404 38.4968L64.036 25.1371C64.4922 25.0334 64.8904 24.7593 65.148 24.3718L79.6689 0L35.3343 17.679Z" fill="#E8380D"/>
<path d="M61.891 29.7549L16.5621 38.9381L16.379 39.1975C16.9415 39.2753 18.2104 39.5088 18.5244 39.5866C18.8384 39.6644 19.2832 40.0406 18.8515 40.7151L14.6914 47.2004L46.2319 56.0723L53.1261 44.4895L31.0046 41.2209L29.9188 40.9615L54.5913 42.077L56.8021 38.3804L23.6264 39.6774L22.7891 39.431L58.699 35.2285L61.891 29.7549Z" fill="#E8380D"/>
<path d="M19.3211 33.0233C18.4315 32.8935 18.1568 32.5174 18.4708 32.0764C18.7847 31.6354 25.8097 21.4146 25.8097 21.4146L10.6478 27.4459L8.50236 30.5848L12.3223 32.1412L12.4269 32.232L7.70436 31.7262L6.65781 33.2697L14.6378 33.1789L15.4489 33.2697L5.58509 34.7873L4.09375 36.9793L19.151 33.1919L19.3211 33.0233Z" fill="#E8380D"/>
<path d="M89.1803 44.2822H85.5566L84.6409 49.1981H79.7352L79.1465 52.4278H84.0522L83.1626 57.2918H86.7994L87.689 52.4278H92.6078L93.1965 49.1981H88.2907L89.1803 44.2822Z" fill="#E8380D"/>
<path d="M101.137 44.2816H96.1133L93.7324 57.2522H97.3692L98.2064 52.6995H100.26C103.531 52.6995 105.755 51.1301 106.239 48.51C106.775 45.5787 105.14 44.2297 101.137 44.2297V44.2816ZM102.746 48.4452C102.653 49.0079 102.339 49.5114 101.874 49.8465C101.409 50.1816 100.829 50.3212 100.26 50.2351H98.6512L99.3053 46.6941H100.914C102.118 46.6941 102.994 47.1222 102.746 48.4452Z" fill="#E8380D"/>
<path d="M115.003 47.512C114.631 47.4487 114.255 47.414 113.878 47.4082C113.173 47.4201 112.483 47.6112 111.873 47.9632C111.264 48.3152 110.756 48.8163 110.398 49.4187L110.725 47.6287H107.677L105.885 57.3437H109.273L110.032 53.232C110.082 52.417 110.432 51.6484 111.015 51.0722C111.599 50.496 112.375 50.1523 113.198 50.1061C113.576 50.0851 113.956 50.1245 114.323 50.2228L115.003 47.512Z" fill="#E8380D"/>
<path d="M121.008 47.369C119.469 47.2774 117.949 47.7422 116.729 48.6771C115.509 49.6121 114.673 50.9538 114.375 52.4535C113.786 55.6572 115.919 57.525 119.15 57.525C120.686 57.6116 122.202 57.1466 123.42 56.2152C124.638 55.2837 125.477 53.9483 125.782 52.4535C126.371 49.2238 124.239 47.369 121.008 47.369ZM122.316 52.4535C122.054 53.8932 121.178 55.1773 119.608 55.1773C118.038 55.1773 117.646 53.8803 117.92 52.4535C118.195 51.0267 119.058 49.7167 120.615 49.7167C122.172 49.7167 122.59 51.0138 122.316 52.4535Z" fill="#E8380D"/>
<path d="M134.927 47.5897H132.311L132.376 47.2654C132.546 46.3185 132.991 45.7219 133.854 45.7219H135.267L135.686 43.4001C135.097 43.4001 134.574 43.4001 133.841 43.4001C131.133 43.4001 129.577 44.3989 129.04 47.2913V47.6156H126.986L126.555 49.9633H128.543L127.235 57.3306H130.61L131.918 49.9633H134.535L134.927 47.5897Z" fill="#E8380D"/>
<path d="M140.617 47.3687C139.142 47.3192 137.7 47.8064 136.563 48.7382C135.425 49.67 134.671 50.9821 134.442 52.4272C133.853 55.6439 135.972 57.5247 139.204 57.5247C140.466 57.5401 141.72 57.3292 142.906 56.9021L143.351 54.5414C142.379 55.0202 141.309 55.273 140.224 55.2807C138.563 55.2807 137.608 54.7619 137.686 53.4259H144.45L144.567 52.8033C145.091 49.9109 144.253 47.3687 140.643 47.3687H140.617ZM141.794 51.5193H138.026C138.102 50.9726 138.369 50.4696 138.78 50.0975C139.191 49.7255 139.72 49.508 140.276 49.4829C141.585 49.4829 141.99 50.4038 141.794 51.5193Z" fill="#E8380D"/>
<path d="M160.596 49.5998C161.525 49.5942 162.435 49.8603 163.212 50.3651L163.657 47.9266C162.646 47.5157 161.557 47.3255 160.465 47.3688C158.503 47.3688 156.109 48.2768 155.703 50.5207C155.062 54.0228 160.085 52.8684 159.785 54.5027C159.667 55.1772 158.96 55.2809 158.267 55.2809C157.17 55.269 156.085 55.0443 155.075 54.6194L154.617 57.1098C155.727 57.4437 156.887 57.5842 158.045 57.5248C160.269 57.5248 162.728 56.8763 163.277 54.2822C163.958 50.5856 158.699 51.7789 158.973 50.2743C159.078 49.7295 159.928 49.5998 160.661 49.5998" fill="#E8380D"/>
<path d="M151.189 49.5999C152.118 49.5927 153.029 49.859 153.805 50.3652L154.028 49.1719L154.394 47.8748C153.332 47.4636 152.197 47.2738 151.058 47.3171C149.109 47.3171 146.715 48.225 146.309 50.4689C145.655 53.971 150.692 52.8166 150.391 54.4509C150.26 55.1254 149.567 55.2291 148.86 55.2291C147.809 55.2178 146.772 54.9926 145.812 54.5676H145.694L145.341 56.3965L145.197 57.0061C146.311 57.3411 147.475 57.4815 148.638 57.4212C150.849 57.4212 153.321 56.7726 153.792 54.1785C154.472 50.4819 149.213 51.6752 149.501 50.1706C149.593 49.6258 150.443 49.4961 151.176 49.4961" fill="#E8380D"/>
<path d="M166.861 43.9314L166.416 46.3828H169.804L170.249 43.9314H166.861Z" fill="#E8380D"/>
<path d="M164.414 57.2914H167.802L169.595 47.5894H166.206L164.414 57.2914Z" fill="#E8380D"/>
<path d="M176.867 47.3693C175.329 47.2777 173.808 47.7424 172.589 48.6774C171.369 49.6123 170.533 50.954 170.235 52.4537C169.646 55.6575 171.765 57.5253 174.997 57.5253C176.533 57.6146 178.05 57.1506 179.269 56.2187C180.488 55.2868 181.326 53.9498 181.629 52.4537C182.231 49.2241 180.099 47.3693 176.867 47.3693ZM178.176 52.4537C177.901 53.8935 177.024 55.1776 175.468 55.1776C173.911 55.1776 173.505 53.8805 173.767 52.4537C174.029 51.027 174.918 49.7169 176.475 49.7169C178.032 49.7169 178.437 51.014 178.176 52.4537Z" fill="#E8380D"/>
<path d="M190.826 47.3689C190.054 47.3486 189.289 47.5223 188.603 47.8738C187.917 48.2254 187.331 48.7433 186.901 49.3794L187.241 47.5894H184.089L182.244 57.3044H185.632L186.391 53.1927C186.77 51.1045 187.699 50.1576 189.007 50.1576C189.936 50.1576 190.46 50.7802 190.119 52.609L189.256 57.3044H192.71L193.822 51.2471C194.201 49.2237 193.455 47.356 190.8 47.356" fill="#E8380D"/>
<path d="M201.044 47.3689C199.669 47.3446 198.302 47.5778 197.015 48.0564L196.635 50.3262C197.649 49.8351 198.764 49.5864 199.893 49.5999C201.109 49.5999 202.051 49.9501 201.816 51.2731C201.305 51.1964 200.789 51.1574 200.272 51.1563C198.454 51.1563 195.144 51.5065 194.594 54.4638C194.215 56.5781 195.772 57.5249 197.708 57.5249C198.379 57.5279 199.041 57.3702 199.638 57.0654C200.235 56.7606 200.748 56.3175 201.135 55.7739C201.044 56.2797 201.005 56.7726 200.926 57.3044H204.04C204.04 56.5333 204.119 55.7641 204.275 55.0086L204.929 51.3898C205.479 48.4325 203.516 47.3689 201.005 47.3689H201.044ZM199.016 55.294C198.218 55.294 197.708 54.9048 197.813 54.2433C197.983 53.3095 198.951 52.9463 200.102 52.9463C200.612 52.9463 201.083 52.9463 201.528 52.9463C201.436 53.5605 201.138 54.1263 200.683 54.5522C200.227 54.9781 199.64 55.2394 199.016 55.294Z" fill="#E8380D"/>
<path d="M208.409 43.9316L205.949 57.2914H209.337L211.784 43.9316H208.409Z" fill="#E8380D"/>
</svg>
